<mxfile host="app.diagrams.net" agent="Mozilla/5.0 (Windows NT 10.0; Win64; x64) AppleWebKit/537.36 (KHTML, like Gecko) Chrome/129.0.0.0 Safari/537.36" version="24.7.17">
  <diagram name="Página-1" id="BBnWh8-d4A18R3wFD1UE">
    <mxGraphModel dx="1434" dy="780" grid="1" gridSize="10" guides="1" tooltips="1" connect="1" arrows="1" fold="1" page="1" pageScale="1" pageWidth="827" pageHeight="1169" math="0" shadow="0">
      <root>
        <mxCell id="0" />
        <mxCell id="1" parent="0" />
        <mxCell id="EHHmjvda5GjpGXwUjut0-9" value="Inicio" style="ellipse;whiteSpace=wrap;html=1;aspect=fixed;" vertex="1" parent="1">
          <mxGeometry x="40" y="40" width="80" height="80" as="geometry" />
        </mxCell>
        <mxCell id="EHHmjvda5GjpGXwUjut0-10" value="Fim" style="ellipse;whiteSpace=wrap;html=1;aspect=fixed;" vertex="1" parent="1">
          <mxGeometry x="840" y="40" width="80" height="80" as="geometry" />
        </mxCell>
        <mxCell id="EHHmjvda5GjpGXwUjut0-11" value="Entrada de dados" style="shape=parallelogram;perimeter=parallelogramPerimeter;whiteSpace=wrap;html=1;fixedSize=1;" vertex="1" parent="1">
          <mxGeometry x="140" y="40" width="180" height="80" as="geometry" />
        </mxCell>
        <mxCell id="EHHmjvda5GjpGXwUjut0-12" value="Processamento" style="rounded=0;whiteSpace=wrap;html=1;" vertex="1" parent="1">
          <mxGeometry x="354" y="40" width="160" height="80" as="geometry" />
        </mxCell>
        <mxCell id="EHHmjvda5GjpGXwUjut0-13" value="Decisões&lt;div&gt;Validar&amp;nbsp;&lt;/div&gt;" style="rhombus;whiteSpace=wrap;html=1;" vertex="1" parent="1">
          <mxGeometry x="550" y="32.5" width="90" height="95" as="geometry" />
        </mxCell>
        <mxCell id="EHHmjvda5GjpGXwUjut0-14" value="Saída de dados impressão" style="shape=document;whiteSpace=wrap;html=1;boundedLbl=1;" vertex="1" parent="1">
          <mxGeometry x="670" y="40" width="130" height="80" as="geometry" />
        </mxCell>
        <mxCell id="EHHmjvda5GjpGXwUjut0-19" value="" style="edgeStyle=orthogonalEdgeStyle;rounded=0;orthogonalLoop=1;jettySize=auto;html=1;" edge="1" parent="1" source="EHHmjvda5GjpGXwUjut0-15" target="EHHmjvda5GjpGXwUjut0-16">
          <mxGeometry relative="1" as="geometry" />
        </mxCell>
        <mxCell id="EHHmjvda5GjpGXwUjut0-15" value="Inicio" style="ellipse;whiteSpace=wrap;html=1;aspect=fixed;" vertex="1" parent="1">
          <mxGeometry x="440" y="200" width="80" height="80" as="geometry" />
        </mxCell>
        <mxCell id="EHHmjvda5GjpGXwUjut0-18" style="edgeStyle=orthogonalEdgeStyle;rounded=0;orthogonalLoop=1;jettySize=auto;html=1;exitX=0.5;exitY=1;exitDx=0;exitDy=0;entryX=0.5;entryY=0;entryDx=0;entryDy=0;" edge="1" parent="1" source="EHHmjvda5GjpGXwUjut0-16" target="EHHmjvda5GjpGXwUjut0-17">
          <mxGeometry relative="1" as="geometry" />
        </mxCell>
        <mxCell id="EHHmjvda5GjpGXwUjut0-16" value="real num" style="shape=parallelogram;perimeter=parallelogramPerimeter;whiteSpace=wrap;html=1;fixedSize=1;" vertex="1" parent="1">
          <mxGeometry x="390" y="320" width="180" height="80" as="geometry" />
        </mxCell>
        <mxCell id="EHHmjvda5GjpGXwUjut0-23" value="" style="edgeStyle=orthogonalEdgeStyle;rounded=0;orthogonalLoop=1;jettySize=auto;html=1;" edge="1" parent="1" source="EHHmjvda5GjpGXwUjut0-17" target="EHHmjvda5GjpGXwUjut0-22">
          <mxGeometry relative="1" as="geometry" />
        </mxCell>
        <mxCell id="EHHmjvda5GjpGXwUjut0-17" value="&quot;Digite um número entre 01 e 10&quot;" style="shape=parallelogram;perimeter=parallelogramPerimeter;whiteSpace=wrap;html=1;fixedSize=1;" vertex="1" parent="1">
          <mxGeometry x="390" y="450" width="180" height="80" as="geometry" />
        </mxCell>
        <mxCell id="EHHmjvda5GjpGXwUjut0-29" value="" style="edgeStyle=orthogonalEdgeStyle;rounded=0;orthogonalLoop=1;jettySize=auto;html=1;" edge="1" parent="1" source="EHHmjvda5GjpGXwUjut0-21" target="EHHmjvda5GjpGXwUjut0-28">
          <mxGeometry relative="1" as="geometry" />
        </mxCell>
        <mxCell id="EHHmjvda5GjpGXwUjut0-31" value="" style="edgeStyle=orthogonalEdgeStyle;rounded=0;orthogonalLoop=1;jettySize=auto;html=1;" edge="1" parent="1" source="EHHmjvda5GjpGXwUjut0-21" target="EHHmjvda5GjpGXwUjut0-30">
          <mxGeometry relative="1" as="geometry" />
        </mxCell>
        <mxCell id="EHHmjvda5GjpGXwUjut0-21" value="se num &amp;gt;= 1&lt;div&gt;e&lt;/div&gt;&lt;div&gt;se num &amp;lt;= 10&lt;/div&gt;" style="rhombus;whiteSpace=wrap;html=1;" vertex="1" parent="1">
          <mxGeometry x="410" y="730" width="140" height="140" as="geometry" />
        </mxCell>
        <mxCell id="EHHmjvda5GjpGXwUjut0-25" value="" style="edgeStyle=orthogonalEdgeStyle;rounded=0;orthogonalLoop=1;jettySize=auto;html=1;" edge="1" parent="1" source="EHHmjvda5GjpGXwUjut0-22" target="EHHmjvda5GjpGXwUjut0-21">
          <mxGeometry relative="1" as="geometry" />
        </mxCell>
        <mxCell id="EHHmjvda5GjpGXwUjut0-22" value="leia num" style="shape=parallelogram;perimeter=parallelogramPerimeter;whiteSpace=wrap;html=1;fixedSize=1;" vertex="1" parent="1">
          <mxGeometry x="390" y="610" width="180" height="80" as="geometry" />
        </mxCell>
        <mxCell id="EHHmjvda5GjpGXwUjut0-28" value="&quot;O número informado&quot;, num, &quot;não está no intervalo entre 01 e 10&quot;" style="shape=document;whiteSpace=wrap;html=1;boundedLbl=1;" vertex="1" parent="1">
          <mxGeometry x="200" y="760" width="120" height="80" as="geometry" />
        </mxCell>
        <mxCell id="EHHmjvda5GjpGXwUjut0-30" value="&quot;O número informado&quot;, num, &quot;está no intervalo entre 01 e 10&quot;" style="shape=document;whiteSpace=wrap;html=1;boundedLbl=1;" vertex="1" parent="1">
          <mxGeometry x="640" y="760" width="120" height="80" as="geometry" />
        </mxCell>
        <mxCell id="EHHmjvda5GjpGXwUjut0-32" value="F" style="text;html=1;align=center;verticalAlign=middle;resizable=0;points=[];autosize=1;strokeColor=none;fillColor=none;" vertex="1" parent="1">
          <mxGeometry x="354" y="768" width="30" height="30" as="geometry" />
        </mxCell>
        <mxCell id="EHHmjvda5GjpGXwUjut0-33" value="V" style="text;html=1;align=center;verticalAlign=middle;resizable=0;points=[];autosize=1;strokeColor=none;fillColor=none;" vertex="1" parent="1">
          <mxGeometry x="580" y="768" width="30" height="30" as="geometry" />
        </mxCell>
        <mxCell id="EHHmjvda5GjpGXwUjut0-34" value="Fim" style="ellipse;whiteSpace=wrap;html=1;aspect=fixed;" vertex="1" parent="1">
          <mxGeometry x="440" y="960" width="80" height="80" as="geometry" />
        </mxCell>
        <mxCell id="EHHmjvda5GjpGXwUjut0-35" value="" style="endArrow=none;html=1;rounded=0;" edge="1" parent="1">
          <mxGeometry width="50" height="50" relative="1" as="geometry">
            <mxPoint x="280" y="1000" as="sourcePoint" />
            <mxPoint x="280" y="820" as="targetPoint" />
            <Array as="points" />
          </mxGeometry>
        </mxCell>
        <mxCell id="EHHmjvda5GjpGXwUjut0-36" value="" style="endArrow=classic;html=1;rounded=0;entryX=0;entryY=0.5;entryDx=0;entryDy=0;" edge="1" parent="1" target="EHHmjvda5GjpGXwUjut0-34">
          <mxGeometry width="50" height="50" relative="1" as="geometry">
            <mxPoint x="280" y="1000" as="sourcePoint" />
            <mxPoint x="440" y="840" as="targetPoint" />
          </mxGeometry>
        </mxCell>
        <mxCell id="EHHmjvda5GjpGXwUjut0-39" value="" style="endArrow=none;html=1;rounded=0;entryX=0.675;entryY=0.738;entryDx=0;entryDy=0;entryPerimeter=0;" edge="1" parent="1" target="EHHmjvda5GjpGXwUjut0-30">
          <mxGeometry width="50" height="50" relative="1" as="geometry">
            <mxPoint x="720" y="1000" as="sourcePoint" />
            <mxPoint x="440" y="840" as="targetPoint" />
          </mxGeometry>
        </mxCell>
        <mxCell id="EHHmjvda5GjpGXwUjut0-40" value="" style="endArrow=classic;html=1;rounded=0;entryX=1;entryY=0.5;entryDx=0;entryDy=0;" edge="1" parent="1" target="EHHmjvda5GjpGXwUjut0-34">
          <mxGeometry width="50" height="50" relative="1" as="geometry">
            <mxPoint x="720" y="1000" as="sourcePoint" />
            <mxPoint x="450" y="1010" as="targetPoint" />
          </mxGeometry>
        </mxCell>
      </root>
    </mxGraphModel>
  </diagram>
</mxfile>
